<?xml version="1.0" encoding="UTF-8" standalone="no"?>
<!-- Created with Inkscape (http://www.inkscape.org/) -->

<svg
   width="90mm"
   height="90mm"
   viewBox="0 0 90 90"
   version="1.1"
   id="svg4574"
   inkscape:version="1.1.2 (0a00cf5339, 2022-02-04)"
   sodipodi:docname="heart.svg"
   xmlns:inkscape="http://www.inkscape.org/namespaces/inkscape"
   xmlns:sodipodi="http://sodipodi.sourceforge.net/DTD/sodipodi-0.dtd"
   xmlns="http://www.w3.org/2000/svg"
   xmlns:svg="http://www.w3.org/2000/svg">
  <sodipodi:namedview
     id="namedview4576"
     pagecolor="#ffffff"
     bordercolor="#666666"
     borderopacity="1.0"
     inkscape:pageshadow="2"
     inkscape:pageopacity="0.0"
     inkscape:pagecheckerboard="0"
     inkscape:document-units="mm"
     showgrid="true"
     width="96mm"
     inkscape:snap-grids="false"
     inkscape:zoom="1.5714642"
     inkscape:cx="165.76897"
     inkscape:cy="184.54127"
     inkscape:window-width="1664"
     inkscape:window-height="882"
     inkscape:window-x="0"
     inkscape:window-y="27"
     inkscape:window-maximized="1"
     inkscape:current-layer="layer1">
    <inkscape:grid
       type="xygrid"
       id="grid4669"
       visible="false" />
  </sodipodi:namedview>
  <defs
     id="defs4571">
    <linearGradient
       id="linearGradient5896"
       inkscape:swatch="gradient">
      <stop
         style="stop-color:#000000;stop-opacity:1;"
         offset="0"
         id="stop5892" />
      <stop
         style="stop-color:#000000;stop-opacity:0;"
         offset="1"
         id="stop5894" />
    </linearGradient>
    <linearGradient
       id="linear-gradient"
       x1="433.61842"
       y1="307.74225"
       x2="404.71008"
       y2="341.82751"
       gradientUnits="userSpaceOnUse"
       gradientTransform="scale(0.70356617,1.4213304)">
      <stop
         offset="0"
         stop-color="#ff7471"
         id="stop4719" />
      <stop
         offset="1"
         stop-color="#ff5245"
         id="stop4721" />
    </linearGradient>
  </defs>
  <g
     inkscape:label="Ebene 1"
     inkscape:groupmode="layer"
     id="layer1">
    <g
       id="heart_red"
       data-name="heart red"
       transform="matrix(0.60411895,0,0,0.60411895,-137.97988,-213.59136)"
       style="fill:#ff0000;fill-opacity:1;stroke:none;stroke-opacity:1">
      <g
         id="Group_25"
         data-name="Group 25"
         style="fill:#ff0000;fill-opacity:1;stroke:none;stroke-opacity:1">
        <path
           id="Path_69"
           data-name="Path 69"
           d="m 302.81,446.03 c -0.059,-0.106 -0.128,-0.2 -0.187,-0.307 0.059,0.1 0.128,0.2 0.187,0.307 z"
           fill="none"
           style="fill:#ff0000;fill-opacity:1;stroke:none;stroke-opacity:1" />
        <path
           id="Path_70"
           data-name="Path 70"
           d="m 341.628,456.395 -0.025,-0.006 c 0.006,-0.142 0.025,-0.279 0.025,-0.431 a 20.662,20.662 0 0 0 -37.039,-12.611 0.171,0.171 0 0 0 -0.024,-0.007 2.169,2.169 0 0 1 -3.54,-0.046 l -0.035,0.008 a 20.657,20.657 0 0 0 -37,12.656 c 0,0.147 0.018,0.282 0.018,0.424 l -0.029,0.013 c 0,0 0,0.5 0.1,1.413 a 20.552,20.552 0 0 0 0.6,3.364 c 1.608,6.945 6.938,20.286 24.659,32.122 10.242,6.879 12.73,8.743 13.383,8.867 0.031,0.006 0.048,0.033 0.083,0.033 0.035,0 0.058,-0.033 0.094,-0.043 0.7,-0.162 3.265,-2.071 13.359,-8.857 16.931,-11.313 22.555,-24 24.428,-31.163 a 20.743,20.743 0 0 0 0.854,-4.546 c 0.084,-0.761 0.089,-1.19 0.089,-1.19 z M 302.81,446.03 v 0 c -0.059,-0.1 -0.128,-0.2 -0.187,-0.307 0.059,0.102 0.128,0.201 0.187,0.307 z"
           fill="#ff5245"
           style="fill:#ff0000;fill-opacity:1;stroke:none;stroke-opacity:1" />
      </g>
      <path
         id="Path_71"
         data-name="Path 71"
         d="m 295.337,474.437 c -5.407,-20.228 1.411,-28.894 5,-31.889 a 20.747,20.747 0 0 0 -6.426,-5.077 c -6.5,-1.416 -15.583,0.295 -21.458,16.921 -1,3.4 -1.458,11.938 -0.492,22.426 a 65.334,65.334 0 0 0 17.38,16.476 c 10.242,6.879 12.73,8.743 13.383,8.867 0.031,0.006 0.048,0.033 0.083,0.033 0.035,0 0.058,-0.033 0.094,-0.043 a 2.946,2.946 0 0 0 0.76,-0.373 c -2.061,-5.773 -4.912,-14.596 -8.324,-27.341 z"
         fill="url(#linear-gradient)"
         style="fill:#ff0000;fill-opacity:1;stroke:none;stroke-opacity:1" />
    </g>
  </g>
</svg>
